<mxfile host="app.diagrams.net">
  <diagram id="GA4-GTM" name="GA4 vs GTM Context">
    <mxGraphModel dx="1420" dy="794" grid="1" gridSize="10" guides="1" tooltips="1" connect="1" arrows="1" fold="1" page="1" pageScale="1" pageWidth="827" pageHeight="1169" math="0" shadow="0">
      <root>
        <mxCell id="0"/>
        <mxCell id="1" parent="0"/>

        <!-- GA4 swimlane -->
        <mxCell id="2" value="GA4" style="swimlane;fillColor=#f8cecc;" vertex="1" parent="1">
          <mxGeometry x="20" y="20" width="300" height="600" as="geometry"/>
        </mxCell>
        <mxCell id="3" value="Account" style="shape=rectangle;fillColor=#fff2cc;" vertex="1" parent="2">
          <mxGeometry x="20" y="40" width="260" height="40" as="geometry"/>
        </mxCell>
        <mxCell id="4" value="Property (Project)" style="shape=rectangle;fillColor=#fff2cc;" vertex="1" parent="2">
          <mxGeometry x="20" y="90" width="260" height="40" as="geometry"/>
        </mxCell>
        <mxCell id="5" value="Data Streams" style="shape=rectangle;fillColor=#fff2cc;" vertex="1" parent="2">
          <mxGeometry x="20" y="140" width="260" height="40" as="geometry"/>
        </mxCell>
        <mxCell id="6" value="Events" style="shape=rectangle;" vertex="1" parent="2">
          <mxGeometry x="40" y="190" width="220" height="40" as="geometry"/>
        </mxCell>
        <mxCell id="7" value="Parameters" style="shape=rectangle;" vertex="1" parent="2">
          <mxGeometry x="40" y="240" width="220" height="40" as="geometry"/>
        </mxCell>
        <mxCell id="8" value="Metrics &amp; Dimensions" style="shape=rectangle;" vertex="1" parent="2">
          <mxGeometry x="40" y="290" width="220" height="40" as="geometry"/>
        </mxCell>
        <mxCell id="9" value="Conversions" style="shape=rectangle;" vertex="1" parent="2">
          <mxGeometry x="40" y="340" width="220" height="40" as="geometry"/>
        </mxCell>
        <mxCell id="10" value="Audiences" style="shape=rectangle;" vertex="1" parent="2">
          <mxGeometry x="40" y="390" width="220" height="40" as="geometry"/>
        </mxCell>

        <!-- GTM swimlane -->
        <mxCell id="20" value="Google Tag Manager" style="swimlane;fillColor=#ffe6cc;" vertex="1" parent="1">
          <mxGeometry x="360" y="20" width="300" height="600" as="geometry"/>
        </mxCell>
        <mxCell id="21" value="Account" style="shape=rectangle;fillColor=#dae8fc;" vertex="1" parent="20">
          <mxGeometry x="20" y="40" width="260" height="40" as="geometry"/>
        </mxCell>
        <mxCell id="22" value="Container" style="shape=rectangle;fillColor=#dae8fc;" vertex="1" parent="20">
          <mxGeometry x="20" y="90" width="260" height="40" as="geometry"/>
        </mxCell>
        <mxCell id="23" value="Tags" style="shape=rectangle;" vertex="1" parent="20">
          <mxGeometry x="40" y="140" width="220" height="40" as="geometry"/>
        </mxCell>
        <mxCell id="24" value="Triggers" style="shape=rectangle;" vertex="1" parent="20">
          <mxGeometry x="40" y="190" width="220" height="40" as="geometry"/>
        </mxCell>
        <mxCell id="25" value="Variables" style="shape=rectangle;" vertex="1" parent="20">
          <mxGeometry x="40" y="240" width="220" height="40" as="geometry"/>
        </mxCell>
        <mxCell id="26" value="Preview &amp; Versions" style="shape=rectangle;" vertex="1" parent="20">
          <mxGeometry x="40" y="290" width="220" height="40" as="geometry"/>
        </mxCell>
        <mxCell id="27" value="Publish" style="shape=rectangle;" vertex="1" parent="20">
          <mxGeometry x="40" y="340" width="220" height="40" as="geometry"/>
        </mxCell>

        <!-- Relations -->
        <mxCell id="30" edge="1" source="5" target="23" style="endArrow=blockThin;strokeColor=#000000;" parent="1">
          <mxGeometry relative="1" as="geometry"/>
        </mxCell>
        <mxCell id="31" edge="1" source="23" target="6" style="endArrow=blockThin;strokeColor=#000000;" parent="1">
          <mxGeometry relative="1" as="geometry"/>
        </mxCell>
      </root>
    </mxGraphModel>
  </diagram>
</mxfile>